<svg width="1045" height="1040" xmlns="http://www.w3.org/2000/svg" xmlns:xlink="http://www.w3.org/1999/xlink" xml:space="preserve" overflow="hidden"><defs><linearGradient x1="1679.5" y1="715.5" x2="2718.5" y2="1755.5" gradientUnits="userSpaceOnUse" spreadMethod="reflect" id="fill0"><stop offset="0" stop-color="#3F8A8E" stop-opacity="1"/><stop offset="0.5" stop-color="#5DB5A1" stop-opacity="1"/><stop offset="1" stop-color="#7CE0B5" stop-opacity="1"/></linearGradient><linearGradient x1="2410" y1="929" x2="2410" y2="877" gradientUnits="userSpaceOnUse" spreadMethod="reflect" id="fill1"><stop offset="0" stop-color="#C78DC7" stop-opacity="1"/><stop offset="0.0357143" stop-color="#C68DC7" stop-opacity="1"/><stop offset="0.0714286" stop-color="#C68DC7" stop-opacity="1"/><stop offset="0.107143" stop-color="#C68DC7" stop-opacity="1"/><stop offset="0.142857" stop-color="#C68DC7" stop-opacity="1"/><stop offset="0.178571" stop-color="#C58DC7" stop-opacity="1"/><stop offset="0.214286" stop-color="#C58DC7" stop-opacity="1"/><stop offset="0.25" stop-color="#C48DC7" stop-opacity="1"/><stop offset="0.285714" stop-color="#C48DC7" stop-opacity="1"/><stop offset="0.321429" stop-color="#C38DC7" stop-opacity="1"/><stop offset="0.357143" stop-color="#C28DC7" stop-opacity="1"/><stop offset="0.392857" stop-color="#C18DC7" stop-opacity="1"/><stop offset="0.428571" stop-color="#C18DC7" stop-opacity="1"/><stop offset="0.464286" stop-color="#C08DC7" stop-opacity="1"/><stop offset="0.5" stop-color="#BF8DC7" stop-opacity="1"/><stop offset="0.535714" stop-color="#BE8DC7" stop-opacity="1"/><stop offset="0.571429" stop-color="#BC8DC7" stop-opacity="1"/><stop offset="0.607143" stop-color="#BB8DC7" stop-opacity="1"/><stop offset="0.642857" stop-color="#BA8DC7" stop-opacity="1"/><stop offset="0.678571" stop-color="#B88DC7" stop-opacity="1"/><stop offset="0.714286" stop-color="#B78DC7" stop-opacity="1"/><stop offset="0.75" stop-color="#B68DC7" stop-opacity="1"/><stop offset="0.785714" stop-color="#B48DC7" stop-opacity="1"/><stop offset="0.821429" stop-color="#B28DC7" stop-opacity="1"/><stop offset="0.857143" stop-color="#B18DC7" stop-opacity="1"/><stop offset="0.892857" stop-color="#AF8DC7" stop-opacity="1"/><stop offset="0.928571" stop-color="#AD8DC7" stop-opacity="1"/><stop offset="0.964286" stop-color="#AB8DC7" stop-opacity="1"/><stop offset="1" stop-color="#AA8DC7" stop-opacity="1"/></linearGradient><linearGradient x1="2306" y1="929" x2="2306" y2="877" gradientUnits="userSpaceOnUse" spreadMethod="reflect" id="fill2"><stop offset="0" stop-color="#C78DC7" stop-opacity="1"/><stop offset="0.0357143" stop-color="#C68DC7" stop-opacity="1"/><stop offset="0.0714286" stop-color="#C68DC7" stop-opacity="1"/><stop offset="0.107143" stop-color="#C68DC7" stop-opacity="1"/><stop offset="0.142857" stop-color="#C68DC7" stop-opacity="1"/><stop offset="0.178571" stop-color="#C58DC7" stop-opacity="1"/><stop offset="0.214286" stop-color="#C58DC7" stop-opacity="1"/><stop offset="0.25" stop-color="#C48DC7" stop-opacity="1"/><stop offset="0.285714" stop-color="#C48DC7" stop-opacity="1"/><stop offset="0.321429" stop-color="#C38DC7" stop-opacity="1"/><stop offset="0.357143" stop-color="#C28DC7" stop-opacity="1"/><stop offset="0.392857" stop-color="#C18DC7" stop-opacity="1"/><stop offset="0.428571" stop-color="#C18DC7" stop-opacity="1"/><stop offset="0.464286" stop-color="#C08DC7" stop-opacity="1"/><stop offset="0.5" stop-color="#BF8DC7" stop-opacity="1"/><stop offset="0.535714" stop-color="#BE8DC7" stop-opacity="1"/><stop offset="0.571429" stop-color="#BC8DC7" stop-opacity="1"/><stop offset="0.607143" stop-color="#BB8DC7" stop-opacity="1"/><stop offset="0.642857" stop-color="#BA8DC7" stop-opacity="1"/><stop offset="0.678571" stop-color="#B88DC7" stop-opacity="1"/><stop offset="0.714286" stop-color="#B78DC7" stop-opacity="1"/><stop offset="0.75" stop-color="#B68DC7" stop-opacity="1"/><stop offset="0.785714" stop-color="#B48DC7" stop-opacity="1"/><stop offset="0.821429" stop-color="#B28DC7" stop-opacity="1"/><stop offset="0.857143" stop-color="#B18DC7" stop-opacity="1"/><stop offset="0.892857" stop-color="#AF8DC7" stop-opacity="1"/><stop offset="0.928571" stop-color="#AD8DC7" stop-opacity="1"/><stop offset="0.964286" stop-color="#AB8DC7" stop-opacity="1"/><stop offset="1" stop-color="#AA8DC7" stop-opacity="1"/></linearGradient><linearGradient x1="2202" y1="929" x2="2202" y2="877" gradientUnits="userSpaceOnUse" spreadMethod="reflect" id="fill3"><stop offset="0" stop-color="#C78DC7" stop-opacity="1"/><stop offset="0.0357143" stop-color="#C68DC7" stop-opacity="1"/><stop offset="0.0714286" stop-color="#C68DC7" stop-opacity="1"/><stop offset="0.107143" stop-color="#C68DC7" stop-opacity="1"/><stop offset="0.142857" stop-color="#C68DC7" stop-opacity="1"/><stop offset="0.178571" stop-color="#C58DC7" stop-opacity="1"/><stop offset="0.214286" stop-color="#C58DC7" stop-opacity="1"/><stop offset="0.25" stop-color="#C48DC7" stop-opacity="1"/><stop offset="0.285714" stop-color="#C48DC7" stop-opacity="1"/><stop offset="0.321429" stop-color="#C38DC7" stop-opacity="1"/><stop offset="0.357143" stop-color="#C28DC7" stop-opacity="1"/><stop offset="0.392857" stop-color="#C18DC7" stop-opacity="1"/><stop offset="0.428571" stop-color="#C18DC7" stop-opacity="1"/><stop offset="0.464286" stop-color="#C08DC7" stop-opacity="1"/><stop offset="0.5" stop-color="#BF8DC7" stop-opacity="1"/><stop offset="0.535714" stop-color="#BE8DC7" stop-opacity="1"/><stop offset="0.571429" stop-color="#BC8DC7" stop-opacity="1"/><stop offset="0.607143" stop-color="#BB8DC7" stop-opacity="1"/><stop offset="0.642857" stop-color="#BA8DC7" stop-opacity="1"/><stop offset="0.678571" stop-color="#B88DC7" stop-opacity="1"/><stop offset="0.714286" stop-color="#B78DC7" stop-opacity="1"/><stop offset="0.75" stop-color="#B68DC7" stop-opacity="1"/><stop offset="0.785714" stop-color="#B48DC7" stop-opacity="1"/><stop offset="0.821429" stop-color="#B28DC7" stop-opacity="1"/><stop offset="0.857143" stop-color="#B18DC7" stop-opacity="1"/><stop offset="0.892857" stop-color="#AF8DC7" stop-opacity="1"/><stop offset="0.928571" stop-color="#AD8DC7" stop-opacity="1"/><stop offset="0.964286" stop-color="#AB8DC7" stop-opacity="1"/><stop offset="1" stop-color="#AA8DC7" stop-opacity="1"/></linearGradient><linearGradient x1="2099" y1="929" x2="2099" y2="877" gradientUnits="userSpaceOnUse" spreadMethod="reflect" id="fill4"><stop offset="0" stop-color="#C78DC7" stop-opacity="1"/><stop offset="0.0357143" stop-color="#C68DC7" stop-opacity="1"/><stop offset="0.0714286" stop-color="#C68DC7" stop-opacity="1"/><stop offset="0.107143" stop-color="#C68DC7" stop-opacity="1"/><stop offset="0.142857" stop-color="#C68DC7" stop-opacity="1"/><stop offset="0.178571" stop-color="#C58DC7" stop-opacity="1"/><stop offset="0.214286" stop-color="#C58DC7" stop-opacity="1"/><stop offset="0.25" stop-color="#C48DC7" stop-opacity="1"/><stop offset="0.285714" stop-color="#C48DC7" stop-opacity="1"/><stop offset="0.321429" stop-color="#C38DC7" stop-opacity="1"/><stop offset="0.357143" stop-color="#C28DC7" stop-opacity="1"/><stop offset="0.392857" stop-color="#C18DC7" stop-opacity="1"/><stop offset="0.428571" stop-color="#C18DC7" stop-opacity="1"/><stop offset="0.464286" stop-color="#C08DC7" stop-opacity="1"/><stop offset="0.5" stop-color="#BF8DC7" stop-opacity="1"/><stop offset="0.535714" stop-color="#BE8DC7" stop-opacity="1"/><stop offset="0.571429" stop-color="#BC8DC7" stop-opacity="1"/><stop offset="0.607143" stop-color="#BB8DC7" stop-opacity="1"/><stop offset="0.642857" stop-color="#BA8DC7" stop-opacity="1"/><stop offset="0.678571" stop-color="#B88DC7" stop-opacity="1"/><stop offset="0.714286" stop-color="#B78DC7" stop-opacity="1"/><stop offset="0.75" stop-color="#B68DC7" stop-opacity="1"/><stop offset="0.785714" stop-color="#B48DC7" stop-opacity="1"/><stop offset="0.821429" stop-color="#B28DC7" stop-opacity="1"/><stop offset="0.857143" stop-color="#B18DC7" stop-opacity="1"/><stop offset="0.892857" stop-color="#AF8DC7" stop-opacity="1"/><stop offset="0.928571" stop-color="#AD8DC7" stop-opacity="1"/><stop offset="0.964286" stop-color="#AB8DC7" stop-opacity="1"/><stop offset="1" stop-color="#AA8DC7" stop-opacity="1"/></linearGradient><linearGradient x1="1995" y1="929" x2="1995" y2="877" gradientUnits="userSpaceOnUse" spreadMethod="reflect" id="fill5"><stop offset="0" stop-color="#C78DC7" stop-opacity="1"/><stop offset="0.0357143" stop-color="#C68DC7" stop-opacity="1"/><stop offset="0.0714286" stop-color="#C68DC7" stop-opacity="1"/><stop offset="0.107143" stop-color="#C68DC7" stop-opacity="1"/><stop offset="0.142857" stop-color="#C68DC7" stop-opacity="1"/><stop offset="0.178571" stop-color="#C58DC7" stop-opacity="1"/><stop offset="0.214286" stop-color="#C58DC7" stop-opacity="1"/><stop offset="0.25" stop-color="#C48DC7" stop-opacity="1"/><stop offset="0.285714" stop-color="#C48DC7" stop-opacity="1"/><stop offset="0.321429" stop-color="#C38DC7" stop-opacity="1"/><stop offset="0.357143" stop-color="#C28DC7" stop-opacity="1"/><stop offset="0.392857" stop-color="#C18DC7" stop-opacity="1"/><stop offset="0.428571" stop-color="#C18DC7" stop-opacity="1"/><stop offset="0.464286" stop-color="#C08DC7" stop-opacity="1"/><stop offset="0.5" stop-color="#BF8DC7" stop-opacity="1"/><stop offset="0.535714" stop-color="#BE8DC7" stop-opacity="1"/><stop offset="0.571429" stop-color="#BC8DC7" stop-opacity="1"/><stop offset="0.607143" stop-color="#BB8DC7" stop-opacity="1"/><stop offset="0.642857" stop-color="#BA8DC7" stop-opacity="1"/><stop offset="0.678571" stop-color="#B88DC7" stop-opacity="1"/><stop offset="0.714286" stop-color="#B78DC7" stop-opacity="1"/><stop offset="0.75" stop-color="#B68DC7" stop-opacity="1"/><stop offset="0.785714" stop-color="#B48DC7" stop-opacity="1"/><stop offset="0.821429" stop-color="#B28DC7" stop-opacity="1"/><stop offset="0.857143" stop-color="#B18DC7" stop-opacity="1"/><stop offset="0.892857" stop-color="#AF8DC7" stop-opacity="1"/><stop offset="0.928571" stop-color="#AD8DC7" stop-opacity="1"/><stop offset="0.964286" stop-color="#AB8DC7" stop-opacity="1"/><stop offset="1" stop-color="#AA8DC7" stop-opacity="1"/></linearGradient><linearGradient x1="1891" y1="929" x2="1891" y2="877" gradientUnits="userSpaceOnUse" spreadMethod="reflect" id="fill6"><stop offset="0" stop-color="#C78DC7" stop-opacity="1"/><stop offset="0.0357143" stop-color="#C68DC7" stop-opacity="1"/><stop offset="0.0714286" stop-color="#C68DC7" stop-opacity="1"/><stop offset="0.107143" stop-color="#C68DC7" stop-opacity="1"/><stop offset="0.142857" stop-color="#C68DC7" stop-opacity="1"/><stop offset="0.178571" stop-color="#C58DC7" stop-opacity="1"/><stop offset="0.214286" stop-color="#C58DC7" stop-opacity="1"/><stop offset="0.25" stop-color="#C48DC7" stop-opacity="1"/><stop offset="0.285714" stop-color="#C48DC7" stop-opacity="1"/><stop offset="0.321429" stop-color="#C38DC7" stop-opacity="1"/><stop offset="0.357143" stop-color="#C28DC7" stop-opacity="1"/><stop offset="0.392857" stop-color="#C18DC7" stop-opacity="1"/><stop offset="0.428571" stop-color="#C18DC7" stop-opacity="1"/><stop offset="0.464286" stop-color="#C08DC7" stop-opacity="1"/><stop offset="0.5" stop-color="#BF8DC7" stop-opacity="1"/><stop offset="0.535714" stop-color="#BE8DC7" stop-opacity="1"/><stop offset="0.571429" stop-color="#BC8DC7" stop-opacity="1"/><stop offset="0.607143" stop-color="#BB8DC7" stop-opacity="1"/><stop offset="0.642857" stop-color="#BA8DC7" stop-opacity="1"/><stop offset="0.678571" stop-color="#B88DC7" stop-opacity="1"/><stop offset="0.714286" stop-color="#B78DC7" stop-opacity="1"/><stop offset="0.75" stop-color="#B68DC7" stop-opacity="1"/><stop offset="0.785714" stop-color="#B48DC7" stop-opacity="1"/><stop offset="0.821429" stop-color="#B28DC7" stop-opacity="1"/><stop offset="0.857143" stop-color="#B18DC7" stop-opacity="1"/><stop offset="0.892857" stop-color="#AF8DC7" stop-opacity="1"/><stop offset="0.928571" stop-color="#AD8DC7" stop-opacity="1"/><stop offset="0.964286" stop-color="#AB8DC7" stop-opacity="1"/><stop offset="1" stop-color="#AA8DC7" stop-opacity="1"/></linearGradient><linearGradient x1="2513" y1="929" x2="2513" y2="877" gradientUnits="userSpaceOnUse" spreadMethod="reflect" id="fill7"><stop offset="0" stop-color="#C78DC7" stop-opacity="1"/><stop offset="0.0357143" stop-color="#C68DC7" stop-opacity="1"/><stop offset="0.0714286" stop-color="#C68DC7" stop-opacity="1"/><stop offset="0.107143" stop-color="#C68DC7" stop-opacity="1"/><stop offset="0.142857" stop-color="#C68DC7" stop-opacity="1"/><stop offset="0.178571" stop-color="#C58DC7" stop-opacity="1"/><stop offset="0.214286" stop-color="#C58DC7" stop-opacity="1"/><stop offset="0.25" stop-color="#C48DC7" stop-opacity="1"/><stop offset="0.285714" stop-color="#C48DC7" stop-opacity="1"/><stop offset="0.321429" stop-color="#C38DC7" stop-opacity="1"/><stop offset="0.357143" stop-color="#C28DC7" stop-opacity="1"/><stop offset="0.392857" stop-color="#C18DC7" stop-opacity="1"/><stop offset="0.428571" stop-color="#C18DC7" stop-opacity="1"/><stop offset="0.464286" stop-color="#C08DC7" stop-opacity="1"/><stop offset="0.5" stop-color="#BF8DC7" stop-opacity="1"/><stop offset="0.535714" stop-color="#BE8DC7" stop-opacity="1"/><stop offset="0.571429" stop-color="#BC8DC7" stop-opacity="1"/><stop offset="0.607143" stop-color="#BB8DC7" stop-opacity="1"/><stop offset="0.642857" stop-color="#BA8DC7" stop-opacity="1"/><stop offset="0.678571" stop-color="#B88DC7" stop-opacity="1"/><stop offset="0.714286" stop-color="#B78DC7" stop-opacity="1"/><stop offset="0.75" stop-color="#B68DC7" stop-opacity="1"/><stop offset="0.785714" stop-color="#B48DC7" stop-opacity="1"/><stop offset="0.821429" stop-color="#B28DC7" stop-opacity="1"/><stop offset="0.857143" stop-color="#B18DC7" stop-opacity="1"/><stop offset="0.892857" stop-color="#AF8DC7" stop-opacity="1"/><stop offset="0.928571" stop-color="#AD8DC7" stop-opacity="1"/><stop offset="0.964286" stop-color="#AB8DC7" stop-opacity="1"/><stop offset="1" stop-color="#AA8DC7" stop-opacity="1"/></linearGradient><linearGradient x1="2407" y1="1066" x2="2407" y2="1014" gradientUnits="userSpaceOnUse" spreadMethod="reflect" id="fill8"><stop offset="0" stop-color="#C78DC7" stop-opacity="1"/><stop offset="0.0357143" stop-color="#C68DC7" stop-opacity="1"/><stop offset="0.0714286" stop-color="#C68DC7" stop-opacity="1"/><stop offset="0.107143" stop-color="#C68DC7" stop-opacity="1"/><stop offset="0.142857" stop-color="#C68DC7" stop-opacity="1"/><stop offset="0.178571" stop-color="#C58DC7" stop-opacity="1"/><stop offset="0.214286" stop-color="#C58DC7" stop-opacity="1"/><stop offset="0.25" stop-color="#C48DC7" stop-opacity="1"/><stop offset="0.285714" stop-color="#C48DC7" stop-opacity="1"/><stop offset="0.321429" stop-color="#C38DC7" stop-opacity="1"/><stop offset="0.357143" stop-color="#C28DC7" stop-opacity="1"/><stop offset="0.392857" stop-color="#C18DC7" stop-opacity="1"/><stop offset="0.428571" stop-color="#C18DC7" stop-opacity="1"/><stop offset="0.464286" stop-color="#C08DC7" stop-opacity="1"/><stop offset="0.5" stop-color="#BF8DC7" stop-opacity="1"/><stop offset="0.535714" stop-color="#BE8DC7" stop-opacity="1"/><stop offset="0.571429" stop-color="#BC8DC7" stop-opacity="1"/><stop offset="0.607143" stop-color="#BB8DC7" stop-opacity="1"/><stop offset="0.642857" stop-color="#BA8DC7" stop-opacity="1"/><stop offset="0.678571" stop-color="#B88DC7" stop-opacity="1"/><stop offset="0.714286" stop-color="#B78DC7" stop-opacity="1"/><stop offset="0.75" stop-color="#B68DC7" stop-opacity="1"/><stop offset="0.785714" stop-color="#B48DC7" stop-opacity="1"/><stop offset="0.821429" stop-color="#B28DC7" stop-opacity="1"/><stop offset="0.857143" stop-color="#B18DC7" stop-opacity="1"/><stop offset="0.892857" stop-color="#AF8DC7" stop-opacity="1"/><stop offset="0.928571" stop-color="#AD8DC7" stop-opacity="1"/><stop offset="0.964286" stop-color="#AB8DC7" stop-opacity="1"/><stop offset="1" stop-color="#AA8DC7" stop-opacity="1"/></linearGradient><linearGradient x1="2096" y1="1066" x2="2096" y2="1014" gradientUnits="userSpaceOnUse" spreadMethod="reflect" id="fill9"><stop offset="0" stop-color="#C78DC7" stop-opacity="1"/><stop offset="0.0357143" stop-color="#C68DC7" stop-opacity="1"/><stop offset="0.0714286" stop-color="#C68DC7" stop-opacity="1"/><stop offset="0.107143" stop-color="#C68DC7" stop-opacity="1"/><stop offset="0.142857" stop-color="#C68DC7" stop-opacity="1"/><stop offset="0.178571" stop-color="#C58DC7" stop-opacity="1"/><stop offset="0.214286" stop-color="#C58DC7" stop-opacity="1"/><stop offset="0.25" stop-color="#C48DC7" stop-opacity="1"/><stop offset="0.285714" stop-color="#C48DC7" stop-opacity="1"/><stop offset="0.321429" stop-color="#C38DC7" stop-opacity="1"/><stop offset="0.357143" stop-color="#C28DC7" stop-opacity="1"/><stop offset="0.392857" stop-color="#C18DC7" stop-opacity="1"/><stop offset="0.428571" stop-color="#C18DC7" stop-opacity="1"/><stop offset="0.464286" stop-color="#C08DC7" stop-opacity="1"/><stop offset="0.5" stop-color="#BF8DC7" stop-opacity="1"/><stop offset="0.535714" stop-color="#BE8DC7" stop-opacity="1"/><stop offset="0.571429" stop-color="#BC8DC7" stop-opacity="1"/><stop offset="0.607143" stop-color="#BB8DC7" stop-opacity="1"/><stop offset="0.642857" stop-color="#BA8DC7" stop-opacity="1"/><stop offset="0.678571" stop-color="#B88DC7" stop-opacity="1"/><stop offset="0.714286" stop-color="#B78DC7" stop-opacity="1"/><stop offset="0.75" stop-color="#B68DC7" stop-opacity="1"/><stop offset="0.785714" stop-color="#B48DC7" stop-opacity="1"/><stop offset="0.821429" stop-color="#B28DC7" stop-opacity="1"/><stop offset="0.857143" stop-color="#B18DC7" stop-opacity="1"/><stop offset="0.892857" stop-color="#AF8DC7" stop-opacity="1"/><stop offset="0.928571" stop-color="#AD8DC7" stop-opacity="1"/><stop offset="0.964286" stop-color="#AB8DC7" stop-opacity="1"/><stop offset="1" stop-color="#AA8DC7" stop-opacity="1"/></linearGradient><linearGradient x1="1888" y1="1208" x2="1888" y2="1156" gradientUnits="userSpaceOnUse" spreadMethod="reflect" id="fill10"><stop offset="0" stop-color="#C78DC7" stop-opacity="1"/><stop offset="0.0357143" stop-color="#C68DC7" stop-opacity="1"/><stop offset="0.0714286" stop-color="#C68DC7" stop-opacity="1"/><stop offset="0.107143" stop-color="#C68DC7" stop-opacity="1"/><stop offset="0.142857" stop-color="#C68DC7" stop-opacity="1"/><stop offset="0.178571" stop-color="#C58DC7" stop-opacity="1"/><stop offset="0.214286" stop-color="#C58DC7" stop-opacity="1"/><stop offset="0.25" stop-color="#C48DC7" stop-opacity="1"/><stop offset="0.285714" stop-color="#C48DC7" stop-opacity="1"/><stop offset="0.321429" stop-color="#C38DC7" stop-opacity="1"/><stop offset="0.357143" stop-color="#C28DC7" stop-opacity="1"/><stop offset="0.392857" stop-color="#C18DC7" stop-opacity="1"/><stop offset="0.428571" stop-color="#C18DC7" stop-opacity="1"/><stop offset="0.464286" stop-color="#C08DC7" stop-opacity="1"/><stop offset="0.5" stop-color="#BF8DC7" stop-opacity="1"/><stop offset="0.535714" stop-color="#BE8DC7" stop-opacity="1"/><stop offset="0.571429" stop-color="#BC8DC7" stop-opacity="1"/><stop offset="0.607143" stop-color="#BB8DC7" stop-opacity="1"/><stop offset="0.642857" stop-color="#BA8DC7" stop-opacity="1"/><stop offset="0.678571" stop-color="#B88DC7" stop-opacity="1"/><stop offset="0.714286" stop-color="#B78DC7" stop-opacity="1"/><stop offset="0.75" stop-color="#B68DC7" stop-opacity="1"/><stop offset="0.785714" stop-color="#B48DC7" stop-opacity="1"/><stop offset="0.821429" stop-color="#B28DC7" stop-opacity="1"/><stop offset="0.857143" stop-color="#B18DC7" stop-opacity="1"/><stop offset="0.892857" stop-color="#AF8DC7" stop-opacity="1"/><stop offset="0.928571" stop-color="#AD8DC7" stop-opacity="1"/><stop offset="0.964286" stop-color="#AB8DC7" stop-opacity="1"/><stop offset="1" stop-color="#AA8DC7" stop-opacity="1"/></linearGradient><linearGradient x1="2510" y1="1208" x2="2510" y2="1156" gradientUnits="userSpaceOnUse" spreadMethod="reflect" id="fill11"><stop offset="0" stop-color="#C78DC7" stop-opacity="1"/><stop offset="0.0357143" stop-color="#C68DC7" stop-opacity="1"/><stop offset="0.0714286" stop-color="#C68DC7" stop-opacity="1"/><stop offset="0.107143" stop-color="#C68DC7" stop-opacity="1"/><stop offset="0.142857" stop-color="#C68DC7" stop-opacity="1"/><stop offset="0.178571" stop-color="#C58DC7" stop-opacity="1"/><stop offset="0.214286" stop-color="#C58DC7" stop-opacity="1"/><stop offset="0.25" stop-color="#C48DC7" stop-opacity="1"/><stop offset="0.285714" stop-color="#C48DC7" stop-opacity="1"/><stop offset="0.321429" stop-color="#C38DC7" stop-opacity="1"/><stop offset="0.357143" stop-color="#C28DC7" stop-opacity="1"/><stop offset="0.392857" stop-color="#C18DC7" stop-opacity="1"/><stop offset="0.428571" stop-color="#C18DC7" stop-opacity="1"/><stop offset="0.464286" stop-color="#C08DC7" stop-opacity="1"/><stop offset="0.5" stop-color="#BF8DC7" stop-opacity="1"/><stop offset="0.535714" stop-color="#BE8DC7" stop-opacity="1"/><stop offset="0.571429" stop-color="#BC8DC7" stop-opacity="1"/><stop offset="0.607143" stop-color="#BB8DC7" stop-opacity="1"/><stop offset="0.642857" stop-color="#BA8DC7" stop-opacity="1"/><stop offset="0.678571" stop-color="#B88DC7" stop-opacity="1"/><stop offset="0.714286" stop-color="#B78DC7" stop-opacity="1"/><stop offset="0.75" stop-color="#B68DC7" stop-opacity="1"/><stop offset="0.785714" stop-color="#B48DC7" stop-opacity="1"/><stop offset="0.821429" stop-color="#B28DC7" stop-opacity="1"/><stop offset="0.857143" stop-color="#B18DC7" stop-opacity="1"/><stop offset="0.892857" stop-color="#AF8DC7" stop-opacity="1"/><stop offset="0.928571" stop-color="#AD8DC7" stop-opacity="1"/><stop offset="0.964286" stop-color="#AB8DC7" stop-opacity="1"/><stop offset="1" stop-color="#AA8DC7" stop-opacity="1"/></linearGradient><linearGradient x1="2306" y1="1346" x2="2306" y2="1294" gradientUnits="userSpaceOnUse" spreadMethod="reflect" id="fill12"><stop offset="0" stop-color="#C78DC7" stop-opacity="1"/><stop offset="0.0357143" stop-color="#C68DC7" stop-opacity="1"/><stop offset="0.0714286" stop-color="#C68DC7" stop-opacity="1"/><stop offset="0.107143" stop-color="#C68DC7" stop-opacity="1"/><stop offset="0.142857" stop-color="#C68DC7" stop-opacity="1"/><stop offset="0.178571" stop-color="#C58DC7" stop-opacity="1"/><stop offset="0.214286" stop-color="#C58DC7" stop-opacity="1"/><stop offset="0.25" stop-color="#C48DC7" stop-opacity="1"/><stop offset="0.285714" stop-color="#C48DC7" stop-opacity="1"/><stop offset="0.321429" stop-color="#C38DC7" stop-opacity="1"/><stop offset="0.357143" stop-color="#C28DC7" stop-opacity="1"/><stop offset="0.392857" stop-color="#C18DC7" stop-opacity="1"/><stop offset="0.428571" stop-color="#C18DC7" stop-opacity="1"/><stop offset="0.464286" stop-color="#C08DC7" stop-opacity="1"/><stop offset="0.5" stop-color="#BF8DC7" stop-opacity="1"/><stop offset="0.535714" stop-color="#BE8DC7" stop-opacity="1"/><stop offset="0.571429" stop-color="#BC8DC7" stop-opacity="1"/><stop offset="0.607143" stop-color="#BB8DC7" stop-opacity="1"/><stop offset="0.642857" stop-color="#BA8DC7" stop-opacity="1"/><stop offset="0.678571" stop-color="#B88DC7" stop-opacity="1"/><stop offset="0.714286" stop-color="#B78DC7" stop-opacity="1"/><stop offset="0.75" stop-color="#B68DC7" stop-opacity="1"/><stop offset="0.785714" stop-color="#B48DC7" stop-opacity="1"/><stop offset="0.821429" stop-color="#B28DC7" stop-opacity="1"/><stop offset="0.857143" stop-color="#B18DC7" stop-opacity="1"/><stop offset="0.892857" stop-color="#AF8DC7" stop-opacity="1"/><stop offset="0.928571" stop-color="#AD8DC7" stop-opacity="1"/><stop offset="0.964286" stop-color="#AB8DC7" stop-opacity="1"/><stop offset="1" stop-color="#AA8DC7" stop-opacity="1"/></linearGradient><linearGradient x1="1995" y1="1346" x2="1995" y2="1294" gradientUnits="userSpaceOnUse" spreadMethod="reflect" id="fill13"><stop offset="0" stop-color="#C78DC7" stop-opacity="1"/><stop offset="0.0357143" stop-color="#C68DC7" stop-opacity="1"/><stop offset="0.0714286" stop-color="#C68DC7" stop-opacity="1"/><stop offset="0.107143" stop-color="#C68DC7" stop-opacity="1"/><stop offset="0.142857" stop-color="#C68DC7" stop-opacity="1"/><stop offset="0.178571" stop-color="#C58DC7" stop-opacity="1"/><stop offset="0.214286" stop-color="#C58DC7" stop-opacity="1"/><stop offset="0.25" stop-color="#C48DC7" stop-opacity="1"/><stop offset="0.285714" stop-color="#C48DC7" stop-opacity="1"/><stop offset="0.321429" stop-color="#C38DC7" stop-opacity="1"/><stop offset="0.357143" stop-color="#C28DC7" stop-opacity="1"/><stop offset="0.392857" stop-color="#C18DC7" stop-opacity="1"/><stop offset="0.428571" stop-color="#C18DC7" stop-opacity="1"/><stop offset="0.464286" stop-color="#C08DC7" stop-opacity="1"/><stop offset="0.5" stop-color="#BF8DC7" stop-opacity="1"/><stop offset="0.535714" stop-color="#BE8DC7" stop-opacity="1"/><stop offset="0.571429" stop-color="#BC8DC7" stop-opacity="1"/><stop offset="0.607143" stop-color="#BB8DC7" stop-opacity="1"/><stop offset="0.642857" stop-color="#BA8DC7" stop-opacity="1"/><stop offset="0.678571" stop-color="#B88DC7" stop-opacity="1"/><stop offset="0.714286" stop-color="#B78DC7" stop-opacity="1"/><stop offset="0.75" stop-color="#B68DC7" stop-opacity="1"/><stop offset="0.785714" stop-color="#B48DC7" stop-opacity="1"/><stop offset="0.821429" stop-color="#B28DC7" stop-opacity="1"/><stop offset="0.857143" stop-color="#B18DC7" stop-opacity="1"/><stop offset="0.892857" stop-color="#AF8DC7" stop-opacity="1"/><stop offset="0.928571" stop-color="#AD8DC7" stop-opacity="1"/><stop offset="0.964286" stop-color="#AB8DC7" stop-opacity="1"/><stop offset="1" stop-color="#AA8DC7" stop-opacity="1"/></linearGradient></defs><g transform="translate(-1677 -715)"><g><path d="M1679 852.691C1679 777.199 1740.2 716 1815.69 716L2582.31 716C2657.8 716 2719 777.199 2719 852.691L2719 1618.31C2719 1693.8 2657.8 1755 2582.31 1755L1815.69 1755C1740.2 1755 1679 1693.8 1679 1618.31Z" fill="url(#fill0)" fill-rule="evenodd"/><text fill="#FFFFFF" fill-opacity="1" font-family="Noto Sans JP ExtraBold,Noto Sans JP ExtraBold_MSFontService,sans-serif" font-style="normal" font-variant="normal" font-weight="700" font-stretch="normal" font-size="147" text-anchor="start" direction="ltr" writing-mode="lr-tb" unicode-bidi="normal" text-decoration="none" transform="matrix(1 0 0 1 1854.7 1604)">TopK</text><text fill="#FFFFFF" fill-opacity="1" font-family="Noto Sans JP ExtraBold,Noto Sans JP ExtraBold_MSFontService,sans-serif" font-style="normal" font-variant="normal" font-weight="700" font-stretch="normal" font-size="147" text-anchor="start" direction="ltr" writing-mode="lr-tb" unicode-bidi="normal" text-decoration="none" transform="matrix(1 0 0 1 2316.47 1604)">LM</text><path d="M2548 1321 1852 1321" stroke="#FFFFFF" stroke-width="13.8788" stroke-linecap="butt" stroke-linejoin="miter" stroke-miterlimit="8" stroke-opacity="1" fill="none" fill-rule="evenodd"/><path d="M2548 1181 1852 1181" stroke="#FFFFFF" stroke-width="13.8788" stroke-linecap="butt" stroke-linejoin="miter" stroke-miterlimit="8" stroke-opacity="1" fill="none" fill-rule="evenodd"/><path d="M2548 903 1852 903" stroke="#FFFFFF" stroke-width="13.8788" stroke-linecap="butt" stroke-linejoin="miter" stroke-miterlimit="8" stroke-opacity="1" fill="none" fill-rule="evenodd"/><path d="M2548 1040 1852 1040" stroke="#FFFFFF" stroke-width="13.8788" stroke-linecap="butt" stroke-linejoin="miter" stroke-miterlimit="8" stroke-opacity="1" fill="none" fill-rule="evenodd"/><path d="M2384 903C2384 888.64 2395.64 877 2410 877 2424.36 877 2436 888.64 2436 903 2436 917.359 2424.36 929 2410 929 2395.64 929 2384 917.359 2384 903Z" fill="url(#fill1)" fill-rule="evenodd"/><path d="M2280 903C2280 888.64 2291.64 877 2306 877 2320.36 877 2332 888.64 2332 903 2332 917.359 2320.36 929 2306 929 2291.64 929 2280 917.359 2280 903Z" fill="url(#fill2)" fill-rule="evenodd"/><path d="M2176 903C2176 888.64 2187.64 877 2202 877 2216.36 877 2228 888.64 2228 903 2228 917.359 2216.36 929 2202 929 2187.64 929 2176 917.359 2176 903Z" fill="url(#fill3)" fill-rule="evenodd"/><path d="M2073 903C2073 888.64 2084.64 877 2099 877 2113.36 877 2125 888.64 2125 903 2125 917.359 2113.36 929 2099 929 2084.64 929 2073 917.359 2073 903Z" fill="url(#fill4)" fill-rule="evenodd"/><path d="M1969 903C1969 888.64 1980.64 877 1995 877 2009.36 877 2021 888.64 2021 903 2021 917.359 2009.36 929 1995 929 1980.64 929 1969 917.359 1969 903Z" fill="url(#fill5)" fill-rule="evenodd"/><path d="M1865 903C1865 888.64 1876.64 877 1891 877 1905.36 877 1917 888.64 1917 903 1917 917.359 1905.36 929 1891 929 1876.64 929 1865 917.359 1865 903Z" fill="url(#fill6)" fill-rule="evenodd"/><path d="M2487 903C2487 888.64 2498.64 877 2513 877 2527.36 877 2539 888.64 2539 903 2539 917.359 2527.36 929 2513 929 2498.64 929 2487 917.359 2487 903Z" fill="url(#fill7)" fill-rule="evenodd"/><path d="M2381 1040C2381 1025.64 2392.64 1014 2407 1014 2421.36 1014 2433 1025.64 2433 1040 2433 1054.36 2421.36 1066 2407 1066 2392.64 1066 2381 1054.36 2381 1040Z" fill="url(#fill8)" fill-rule="evenodd"/><path d="M2278 1040C2278 1025.64 2289.64 1014 2304 1014 2318.36 1014 2330 1025.64 2330 1040 2330 1054.36 2318.36 1066 2304 1066 2289.64 1066 2278 1054.36 2278 1040Z" fill="#F8F8F8" fill-rule="evenodd" fill-opacity="1"/><path d="M2174 1040C2174 1025.64 2185.64 1014 2200 1014 2214.36 1014 2226 1025.64 2226 1040 2226 1054.36 2214.36 1066 2200 1066 2185.64 1066 2174 1054.36 2174 1040Z" fill="#FFFFFF" fill-rule="evenodd" fill-opacity="1"/><path d="M2070 1040C2070 1025.64 2081.64 1014 2096 1014 2110.36 1014 2122 1025.64 2122 1040 2122 1054.36 2110.36 1066 2096 1066 2081.64 1066 2070 1054.36 2070 1040Z" fill="url(#fill9)" fill-rule="evenodd"/><path d="M1967 1040C1967 1025.64 1978.64 1014 1993 1014 2007.36 1014 2019 1025.64 2019 1040 2019 1054.36 2007.36 1066 1993 1066 1978.64 1066 1967 1054.36 1967 1040Z" fill="#FFFFFF" fill-rule="evenodd" fill-opacity="1"/><path d="M1863 1040C1863 1025.64 1874.64 1014 1889 1014 1903.36 1014 1915 1025.64 1915 1040 1915 1054.36 1903.36 1066 1889 1066 1874.64 1066 1863 1054.36 1863 1040Z" fill="#F8F8F8" fill-rule="evenodd" fill-opacity="1"/><path d="M2485 1040C2485 1025.64 2496.64 1014 2511 1014 2525.36 1014 2537 1025.64 2537 1040 2537 1054.36 2525.36 1066 2511 1066 2496.64 1066 2485 1054.36 2485 1040Z" fill="#F8F8F8" fill-rule="evenodd" fill-opacity="1"/><path d="M2380 1182C2380 1167.64 2391.64 1156 2406 1156 2420.36 1156 2432 1167.64 2432 1182 2432 1196.36 2420.36 1208 2406 1208 2391.64 1208 2380 1196.36 2380 1182Z" fill="#F8F8F8" fill-rule="evenodd" fill-opacity="1"/><path d="M2277 1182C2277 1167.64 2288.64 1156 2303 1156 2317.36 1156 2329 1167.64 2329 1182 2329 1196.36 2317.36 1208 2303 1208 2288.64 1208 2277 1196.36 2277 1182Z" fill="#FFFFFF" fill-rule="evenodd" fill-opacity="1"/><path d="M2173 1182C2173 1167.64 2184.64 1156 2199 1156 2213.36 1156 2225 1167.64 2225 1182 2225 1196.36 2213.36 1208 2199 1208 2184.64 1208 2173 1196.36 2173 1182Z" fill="#F8F8F8" fill-rule="evenodd" fill-opacity="1"/><path d="M2069 1182C2069 1167.64 2080.64 1156 2095 1156 2109.36 1156 2121 1167.64 2121 1182 2121 1196.36 2109.36 1208 2095 1208 2080.64 1208 2069 1196.36 2069 1182Z" fill="#FFFFFF" fill-rule="evenodd" fill-opacity="1"/><path d="M1966 1182C1966 1167.64 1977.64 1156 1992 1156 2006.36 1156 2018 1167.64 2018 1182 2018 1196.36 2006.36 1208 1992 1208 1977.64 1208 1966 1196.36 1966 1182Z" fill="#F8F8F8" fill-rule="evenodd" fill-opacity="1"/><path d="M1862 1182C1862 1167.64 1873.64 1156 1888 1156 1902.36 1156 1914 1167.64 1914 1182 1914 1196.36 1902.36 1208 1888 1208 1873.64 1208 1862 1196.36 1862 1182Z" fill="url(#fill10)" fill-rule="evenodd"/><path d="M2484 1182C2484 1167.64 2495.64 1156 2510 1156 2524.36 1156 2536 1167.64 2536 1182 2536 1196.36 2524.36 1208 2510 1208 2495.64 1208 2484 1196.36 2484 1182Z" fill="url(#fill11)" fill-rule="evenodd"/><path d="M2384 1320C2384 1305.64 2395.64 1294 2410 1294 2424.36 1294 2436 1305.64 2436 1320 2436 1334.36 2424.36 1346 2410 1346 2395.64 1346 2384 1334.36 2384 1320Z" fill="#FFFFFF" fill-rule="evenodd" fill-opacity="1"/><path d="M2280 1320C2280 1305.64 2291.64 1294 2306 1294 2320.36 1294 2332 1305.64 2332 1320 2332 1334.36 2320.36 1346 2306 1346 2291.64 1346 2280 1334.36 2280 1320Z" fill="url(#fill12)" fill-rule="evenodd"/><path d="M2176 1320C2176 1305.64 2187.64 1294 2202 1294 2216.36 1294 2228 1305.64 2228 1320 2228 1334.36 2216.36 1346 2202 1346 2187.64 1346 2176 1334.36 2176 1320Z" fill="#FFFFFF" fill-rule="evenodd" fill-opacity="1"/><path d="M2073 1320C2073 1305.64 2084.64 1294 2099 1294 2113.36 1294 2125 1305.64 2125 1320 2125 1334.36 2113.36 1346 2099 1346 2084.64 1346 2073 1334.36 2073 1320Z" fill="#F8F8F8" fill-rule="evenodd" fill-opacity="1"/><path d="M1969 1320C1969 1305.64 1980.64 1294 1995 1294 2009.36 1294 2021 1305.64 2021 1320 2021 1334.36 2009.36 1346 1995 1346 1980.64 1346 1969 1334.36 1969 1320Z" fill="url(#fill13)" fill-rule="evenodd"/><path d="M1865 1320C1865 1305.64 1876.64 1294 1891 1294 1905.36 1294 1917 1305.64 1917 1320 1917 1334.36 1905.36 1346 1891 1346 1876.64 1346 1865 1334.36 1865 1320Z" fill="#F8F8F8" fill-rule="evenodd" fill-opacity="1"/><path d="M2487 1320C2487 1305.64 2498.64 1294 2513 1294 2527.36 1294 2539 1305.64 2539 1320 2539 1334.36 2527.36 1346 2513 1346 2498.64 1346 2487 1334.36 2487 1320Z" fill="#F8F8F8" fill-rule="evenodd" fill-opacity="1"/></g></g></svg>