<svg width="32" height="32" viewBox="0 0 32 32" xmlns="http://www.w3.org/2000/svg">
  <!-- Gradient background -->
  <defs>
    <linearGradient id="bgGradient" x1="0%" y1="0%" x2="100%" y2="100%">
      <stop offset="0%" style="stop-color:#3F8A8E;stop-opacity:1" />
      <stop offset="100%" style="stop-color:#7CE0B5;stop-opacity:1" />
    </linearGradient>
    <linearGradient id="activeGradient" x1="0%" y1="0%" x2="100%" y2="100%">
      <stop offset="0%" style="stop-color:#7CE0B5;stop-opacity:1" />
      <stop offset="100%" style="stop-color:#A8E6C1;stop-opacity:1" />
    </linearGradient>
  </defs>
  
  <!-- Background -->
  <rect width="32" height="32" rx="6" fill="url(#bgGradient)"/>
  
  <!-- Grid pattern representing neural network layers -->
  <g stroke="#ffffff" stroke-width="0.4" opacity="0.2">
    <line x1="6" y1="6" x2="26" y2="6"/>
    <line x1="6" y1="10" x2="26" y2="10"/>
    <line x1="6" y1="14" x2="26" y2="14"/>
    <line x1="6" y1="18" x2="26" y2="18"/>
  </g>
  
  <!-- TopK activation - sparse to dense progression -->
  <!-- Layer 1: Most sparse (Top-2) -->
  <circle cx="12" cy="6" r="1.2" fill="url(#activeGradient)" opacity="1"/>
  <circle cx="20" cy="6" r="1.2" fill="url(#activeGradient)" opacity="1"/>
  <circle cx="8" cy="6" r="0.8" fill="#ffffff" opacity="0.25"/>
  <circle cx="16" cy="6" r="0.8" fill="#ffffff" opacity="0.25"/>
  <circle cx="24" cy="6" r="0.8" fill="#ffffff" opacity="0.25"/>
  
  <!-- Layer 2: Medium sparse (Top-3) -->
  <circle cx="10" cy="10" r="1.2" fill="url(#activeGradient)" opacity="1"/>
  <circle cx="16" cy="10" r="1.2" fill="url(#activeGradient)" opacity="1"/>
  <circle cx="22" cy="10" r="1.2" fill="url(#activeGradient)" opacity="1"/>
  <circle cx="7" cy="10" r="0.8" fill="#ffffff" opacity="0.3"/>
  <circle cx="25" cy="10" r="0.8" fill="#ffffff" opacity="0.3"/>
  
  <!-- Layer 3: Less sparse (Top-4) -->
  <circle cx="8" cy="14" r="1.1" fill="url(#activeGradient)" opacity="1"/>
  <circle cx="13" cy="14" r="1.1" fill="url(#activeGradient)" opacity="1"/>
  <circle cx="19" cy="14" r="1.1" fill="url(#activeGradient)" opacity="1"/>
  <circle cx="24" cy="14" r="1.1" fill="url(#activeGradient)" opacity="1"/>
  <circle cx="16" cy="14" r="0.7" fill="#ffffff" opacity="0.35"/>
  
  <!-- Layer 4: Dense (all activated) -->
  <circle cx="8" cy="18" r="1" fill="#ffffff" opacity="0.9"/>
  <circle cx="12" cy="18" r="1" fill="#ffffff" opacity="0.9"/>
  <circle cx="16" cy="18" r="1" fill="#ffffff" opacity="0.9"/>
  <circle cx="20" cy="18" r="1" fill="#ffffff" opacity="0.9"/>
  <circle cx="24" cy="18" r="1" fill="#ffffff" opacity="0.9"/>
  
  <!-- TopK and LM text -->
  <text x="4" y="28" font-family="Arial, sans-serif" font-size="5" font-weight="bold" fill="#ffffff" opacity="0.9">TopK</text>
  <text x="20" y="28" font-family="Arial, sans-serif" font-size="5" font-weight="bold" fill="#ffffff" opacity="0.9">LM</text>
</svg>