<svg width="1045" height="1045" xmlns="http://www.w3.org/2000/svg" xmlns:xlink="http://www.w3.org/1999/xlink" xml:space="preserve" overflow="hidden"><defs><clipPath id="clip0"><rect x="1677" y="710" width="1045" height="1045"/></clipPath><linearGradient x1="1679" y1="712" x2="2719" y2="1752" gradientUnits="userSpaceOnUse" spreadMethod="reflect" id="fill1"><stop offset="0" stop-color="#3F8A8E" stop-opacity="1"/><stop offset="0.5" stop-color="#5DB5A1" stop-opacity="1"/><stop offset="1" stop-color="#7CE0B5" stop-opacity="1"/></linearGradient><linearGradient x1="2436" y1="925" x2="2384" y2="873" gradientUnits="userSpaceOnUse" spreadMethod="reflect" id="fill2"><stop offset="0" stop-color="#7CE0B5" stop-opacity="1"/><stop offset="0.5" stop-color="#92E3BB" stop-opacity="1"/><stop offset="1" stop-color="#A8E6C1" stop-opacity="1"/></linearGradient><linearGradient x1="2332" y1="925" x2="2280" y2="873" gradientUnits="userSpaceOnUse" spreadMethod="reflect" id="fill3"><stop offset="0" stop-color="#7CE0B5" stop-opacity="1"/><stop offset="0.5" stop-color="#92E3BB" stop-opacity="1"/><stop offset="1" stop-color="#A8E6C1" stop-opacity="1"/></linearGradient><linearGradient x1="2228" y1="925" x2="2176" y2="873" gradientUnits="userSpaceOnUse" spreadMethod="reflect" id="fill4"><stop offset="0" stop-color="#7CE0B5" stop-opacity="1"/><stop offset="0.5" stop-color="#92E3BB" stop-opacity="1"/><stop offset="1" stop-color="#A8E6C1" stop-opacity="1"/></linearGradient><linearGradient x1="2125" y1="925" x2="2073" y2="873" gradientUnits="userSpaceOnUse" spreadMethod="reflect" id="fill5"><stop offset="0" stop-color="#7CE0B5" stop-opacity="1"/><stop offset="0.5" stop-color="#92E3BB" stop-opacity="1"/><stop offset="1" stop-color="#A8E6C1" stop-opacity="1"/></linearGradient><linearGradient x1="2021" y1="925" x2="1969" y2="873" gradientUnits="userSpaceOnUse" spreadMethod="reflect" id="fill6"><stop offset="0" stop-color="#7CE0B5" stop-opacity="1"/><stop offset="0.5" stop-color="#92E3BB" stop-opacity="1"/><stop offset="1" stop-color="#A8E6C1" stop-opacity="1"/></linearGradient><linearGradient x1="1917" y1="925" x2="1865" y2="873" gradientUnits="userSpaceOnUse" spreadMethod="reflect" id="fill7"><stop offset="0" stop-color="#7CE0B5" stop-opacity="1"/><stop offset="0.5" stop-color="#92E3BB" stop-opacity="1"/><stop offset="1" stop-color="#A8E6C1" stop-opacity="1"/></linearGradient><linearGradient x1="2539" y1="925" x2="2487" y2="873" gradientUnits="userSpaceOnUse" spreadMethod="reflect" id="fill8"><stop offset="0" stop-color="#7CE0B5" stop-opacity="1"/><stop offset="0.5" stop-color="#92E3BB" stop-opacity="1"/><stop offset="1" stop-color="#A8E6C1" stop-opacity="1"/></linearGradient><linearGradient x1="2433" y1="1062" x2="2381" y2="1010" gradientUnits="userSpaceOnUse" spreadMethod="reflect" id="fill9"><stop offset="0" stop-color="#7CE0B5" stop-opacity="1"/><stop offset="0.5" stop-color="#92E3BB" stop-opacity="1"/><stop offset="1" stop-color="#A8E6C1" stop-opacity="1"/></linearGradient><linearGradient x1="2226" y1="1062" x2="2174" y2="1010" gradientUnits="userSpaceOnUse" spreadMethod="reflect" id="fill10"><stop offset="0" stop-color="#7CE0B5" stop-opacity="1"/><stop offset="0.5" stop-color="#92E3BB" stop-opacity="1"/><stop offset="1" stop-color="#A8E6C1" stop-opacity="1"/></linearGradient><linearGradient x1="2019" y1="1062" x2="1967" y2="1010" gradientUnits="userSpaceOnUse" spreadMethod="reflect" id="fill11"><stop offset="0" stop-color="#7CE0B5" stop-opacity="1"/><stop offset="0.5" stop-color="#92E3BB" stop-opacity="1"/><stop offset="1" stop-color="#A8E6C1" stop-opacity="1"/></linearGradient><linearGradient x1="2329" y1="1208" x2="2277" y2="1156" gradientUnits="userSpaceOnUse" spreadMethod="reflect" id="fill12"><stop offset="0" stop-color="#7CE0B5" stop-opacity="1"/><stop offset="0.5" stop-color="#92E3BB" stop-opacity="1"/><stop offset="1" stop-color="#A8E6C1" stop-opacity="1"/></linearGradient><linearGradient x1="2121" y1="1208" x2="2069" y2="1156" gradientUnits="userSpaceOnUse" spreadMethod="reflect" id="fill13"><stop offset="0" stop-color="#7CE0B5" stop-opacity="1"/><stop offset="0.5" stop-color="#92E3BB" stop-opacity="1"/><stop offset="1" stop-color="#A8E6C1" stop-opacity="1"/></linearGradient><linearGradient x1="1914" y1="1208" x2="1862" y2="1156" gradientUnits="userSpaceOnUse" spreadMethod="reflect" id="fill14"><stop offset="0" stop-color="#7CE0B5" stop-opacity="1"/><stop offset="0.5" stop-color="#92E3BB" stop-opacity="1"/><stop offset="1" stop-color="#A8E6C1" stop-opacity="1"/></linearGradient><linearGradient x1="2536" y1="1208" x2="2484" y2="1156" gradientUnits="userSpaceOnUse" spreadMethod="reflect" id="fill15"><stop offset="0" stop-color="#7CE0B5" stop-opacity="1"/><stop offset="0.5" stop-color="#92E3BB" stop-opacity="1"/><stop offset="1" stop-color="#A8E6C1" stop-opacity="1"/></linearGradient><linearGradient x1="2436" y1="1346" x2="2384" y2="1294" gradientUnits="userSpaceOnUse" spreadMethod="reflect" id="fill16"><stop offset="0" stop-color="#7CE0B5" stop-opacity="1"/><stop offset="0.5" stop-color="#92E3BB" stop-opacity="1"/><stop offset="1" stop-color="#A8E6C1" stop-opacity="1"/></linearGradient><linearGradient x1="2228" y1="1346" x2="2176" y2="1294" gradientUnits="userSpaceOnUse" spreadMethod="reflect" id="fill17"><stop offset="0" stop-color="#7CE0B5" stop-opacity="1"/><stop offset="0.5" stop-color="#92E3BB" stop-opacity="1"/><stop offset="1" stop-color="#A8E6C1" stop-opacity="1"/></linearGradient><linearGradient x1="2021" y1="1346" x2="1969" y2="1294" gradientUnits="userSpaceOnUse" spreadMethod="reflect" id="fill18"><stop offset="0" stop-color="#7CE0B5" stop-opacity="1"/><stop offset="0.5" stop-color="#92E3BB" stop-opacity="1"/><stop offset="1" stop-color="#A8E6C1" stop-opacity="1"/></linearGradient></defs><g clip-path="url(#clip0)" transform="translate(-1677 -710)"><path d="M1679 848.822C1679 773.257 1740.26 712 1815.82 712L2582.18 712C2657.74 712 2719 773.257 2719 848.822L2719 1615.18C2719 1690.74 2657.74 1752 2582.18 1752L1815.82 1752C1740.26 1752 1679 1690.74 1679 1615.18Z" fill="url(#fill1)" fill-rule="evenodd"/><path d="M2548 1321 1852 1321" stroke="#FFFFFF" stroke-width="13.8788" stroke-linecap="butt" stroke-linejoin="miter" stroke-miterlimit="8" stroke-opacity="1" fill="none" fill-rule="evenodd"/><path d="M2548 1181 1852 1181" stroke="#FFFFFF" stroke-width="13.8788" stroke-linecap="butt" stroke-linejoin="miter" stroke-miterlimit="8" stroke-opacity="1" fill="none" fill-rule="evenodd"/><path d="M2548 903 1852 903" stroke="#FFFFFF" stroke-width="13.8788" stroke-linecap="butt" stroke-linejoin="miter" stroke-miterlimit="8" stroke-opacity="1" fill="none" fill-rule="evenodd"/><text fill="#FFFFFF" fill-opacity="1" font-family="Noto Sans JP ExtraBold,Noto Sans JP ExtraBold_MSFontService,sans-serif" font-style="normal" font-variant="normal" font-weight="700" font-stretch="normal" font-size="147" text-anchor="start" direction="ltr" writing-mode="lr-tb" unicode-bidi="normal" text-decoration="none" transform="matrix(1 0 0 1 1896.93 1619)">TopK</text><text fill="#FFFFFF" fill-opacity="1" font-family="Noto Sans JP ExtraBold,Noto Sans JP ExtraBold_MSFontService,sans-serif" font-style="normal" font-variant="normal" font-weight="700" font-stretch="normal" font-size="147" text-anchor="start" direction="ltr" writing-mode="lr-tb" unicode-bidi="normal" text-decoration="none" transform="matrix(1 0 0 1 2280.78 1619)">LM</text><path d="M2548 1040 1852 1040" stroke="#FFFFFF" stroke-width="13.8788" stroke-linecap="butt" stroke-linejoin="miter" stroke-miterlimit="8" stroke-opacity="1" fill="none" fill-rule="evenodd"/><path d="M2384 899C2384 884.641 2395.64 873 2410 873 2424.36 873 2436 884.641 2436 899 2436 913.359 2424.36 925 2410 925 2395.64 925 2384 913.359 2384 899Z" fill="url(#fill2)" fill-rule="evenodd"/><path d="M2280 899C2280 884.641 2291.64 873 2306 873 2320.36 873 2332 884.641 2332 899 2332 913.359 2320.36 925 2306 925 2291.64 925 2280 913.359 2280 899Z" fill="url(#fill3)" fill-rule="evenodd"/><path d="M2176 899C2176 884.641 2187.64 873 2202 873 2216.36 873 2228 884.641 2228 899 2228 913.359 2216.36 925 2202 925 2187.64 925 2176 913.359 2176 899Z" fill="url(#fill4)" fill-rule="evenodd"/><path d="M2073 899C2073 884.641 2084.64 873 2099 873 2113.36 873 2125 884.641 2125 899 2125 913.359 2113.36 925 2099 925 2084.64 925 2073 913.359 2073 899Z" fill="url(#fill5)" fill-rule="evenodd"/><path d="M1969 899C1969 884.641 1980.64 873 1995 873 2009.36 873 2021 884.641 2021 899 2021 913.359 2009.36 925 1995 925 1980.64 925 1969 913.359 1969 899Z" fill="url(#fill6)" fill-rule="evenodd"/><path d="M1865 899C1865 884.641 1876.64 873 1891 873 1905.36 873 1917 884.641 1917 899 1917 913.359 1905.36 925 1891 925 1876.64 925 1865 913.359 1865 899Z" fill="url(#fill7)" fill-rule="evenodd"/><path d="M2487 899C2487 884.641 2498.64 873 2513 873 2527.36 873 2539 884.641 2539 899 2539 913.359 2527.36 925 2513 925 2498.64 925 2487 913.359 2487 899Z" fill="url(#fill8)" fill-rule="evenodd"/><path d="M2381 1036C2381 1021.64 2392.64 1010 2407 1010 2421.36 1010 2433 1021.64 2433 1036 2433 1050.36 2421.36 1062 2407 1062 2392.64 1062 2381 1050.36 2381 1036Z" fill="url(#fill9)" fill-rule="evenodd"/><path d="M2278 1036C2278 1021.64 2289.64 1010 2304 1010 2318.36 1010 2330 1021.64 2330 1036 2330 1050.36 2318.36 1062 2304 1062 2289.64 1062 2278 1050.36 2278 1036Z" fill="#F8F8F8" fill-rule="evenodd" fill-opacity="1"/><path d="M2174 1036C2174 1021.64 2185.64 1010 2200 1010 2214.36 1010 2226 1021.64 2226 1036 2226 1050.36 2214.36 1062 2200 1062 2185.64 1062 2174 1050.36 2174 1036Z" fill="url(#fill10)" fill-rule="evenodd"/><path d="M2070 1036C2070 1021.64 2081.64 1010 2096 1010 2110.36 1010 2122 1021.64 2122 1036 2122 1050.36 2110.36 1062 2096 1062 2081.64 1062 2070 1050.36 2070 1036Z" fill="#F8F8F8" fill-rule="evenodd" fill-opacity="1"/><path d="M1967 1036C1967 1021.64 1978.64 1010 1993 1010 2007.36 1010 2019 1021.64 2019 1036 2019 1050.36 2007.36 1062 1993 1062 1978.64 1062 1967 1050.36 1967 1036Z" fill="url(#fill11)" fill-rule="evenodd"/><path d="M1863 1036C1863 1021.64 1874.64 1010 1889 1010 1903.36 1010 1915 1021.64 1915 1036 1915 1050.36 1903.36 1062 1889 1062 1874.64 1062 1863 1050.36 1863 1036Z" fill="#F8F8F8" fill-rule="evenodd" fill-opacity="1"/><path d="M2485 1036C2485 1021.64 2496.64 1010 2511 1010 2525.36 1010 2537 1021.64 2537 1036 2537 1050.36 2525.36 1062 2511 1062 2496.64 1062 2485 1050.36 2485 1036Z" fill="#F8F8F8" fill-rule="evenodd" fill-opacity="1"/><path d="M2380 1182C2380 1167.64 2391.64 1156 2406 1156 2420.36 1156 2432 1167.64 2432 1182 2432 1196.36 2420.36 1208 2406 1208 2391.64 1208 2380 1196.36 2380 1182Z" fill="#F8F8F8" fill-rule="evenodd" fill-opacity="1"/><path d="M2277 1182C2277 1167.64 2288.64 1156 2303 1156 2317.36 1156 2329 1167.64 2329 1182 2329 1196.36 2317.36 1208 2303 1208 2288.64 1208 2277 1196.36 2277 1182Z" fill="url(#fill12)" fill-rule="evenodd"/><path d="M2173 1182C2173 1167.64 2184.64 1156 2199 1156 2213.36 1156 2225 1167.64 2225 1182 2225 1196.36 2213.36 1208 2199 1208 2184.64 1208 2173 1196.36 2173 1182Z" fill="#F8F8F8" fill-rule="evenodd" fill-opacity="1"/><path d="M2069 1182C2069 1167.64 2080.64 1156 2095 1156 2109.36 1156 2121 1167.64 2121 1182 2121 1196.36 2109.36 1208 2095 1208 2080.64 1208 2069 1196.36 2069 1182Z" fill="url(#fill13)" fill-rule="evenodd"/><path d="M1966 1182C1966 1167.64 1977.64 1156 1992 1156 2006.36 1156 2018 1167.64 2018 1182 2018 1196.36 2006.36 1208 1992 1208 1977.64 1208 1966 1196.36 1966 1182Z" fill="#F8F8F8" fill-rule="evenodd" fill-opacity="1"/><path d="M1862 1182C1862 1167.64 1873.64 1156 1888 1156 1902.36 1156 1914 1167.64 1914 1182 1914 1196.36 1902.36 1208 1888 1208 1873.64 1208 1862 1196.36 1862 1182Z" fill="url(#fill14)" fill-rule="evenodd"/><path d="M2484 1182C2484 1167.64 2495.64 1156 2510 1156 2524.36 1156 2536 1167.64 2536 1182 2536 1196.36 2524.36 1208 2510 1208 2495.64 1208 2484 1196.36 2484 1182Z" fill="url(#fill15)" fill-rule="evenodd"/><path d="M2384 1320C2384 1305.64 2395.64 1294 2410 1294 2424.36 1294 2436 1305.64 2436 1320 2436 1334.36 2424.36 1346 2410 1346 2395.64 1346 2384 1334.36 2384 1320Z" fill="url(#fill16)" fill-rule="evenodd"/><path d="M2280 1320C2280 1305.64 2291.64 1294 2306 1294 2320.36 1294 2332 1305.64 2332 1320 2332 1334.36 2320.36 1346 2306 1346 2291.64 1346 2280 1334.36 2280 1320Z" fill="#F8F8F8" fill-rule="evenodd" fill-opacity="1"/><path d="M2176 1320C2176 1305.64 2187.64 1294 2202 1294 2216.36 1294 2228 1305.64 2228 1320 2228 1334.36 2216.36 1346 2202 1346 2187.64 1346 2176 1334.36 2176 1320Z" fill="url(#fill17)" fill-rule="evenodd"/><path d="M2073 1320C2073 1305.64 2084.64 1294 2099 1294 2113.36 1294 2125 1305.64 2125 1320 2125 1334.36 2113.36 1346 2099 1346 2084.64 1346 2073 1334.36 2073 1320Z" fill="#F8F8F8" fill-rule="evenodd" fill-opacity="1"/><path d="M1969 1320C1969 1305.64 1980.64 1294 1995 1294 2009.36 1294 2021 1305.64 2021 1320 2021 1334.36 2009.36 1346 1995 1346 1980.64 1346 1969 1334.36 1969 1320Z" fill="url(#fill18)" fill-rule="evenodd"/><path d="M1865 1320C1865 1305.64 1876.64 1294 1891 1294 1905.36 1294 1917 1305.64 1917 1320 1917 1334.36 1905.36 1346 1891 1346 1876.64 1346 1865 1334.36 1865 1320Z" fill="#F8F8F8" fill-rule="evenodd" fill-opacity="1"/><path d="M2487 1320C2487 1305.64 2498.64 1294 2513 1294 2527.36 1294 2539 1305.64 2539 1320 2539 1334.36 2527.36 1346 2513 1346 2498.64 1346 2487 1334.36 2487 1320Z" fill="#F8F8F8" fill-rule="evenodd" fill-opacity="1"/></g></svg>